<?xml version="1.0" encoding="UTF-8" standalone="no" ?>
<!DOCTYPE svg PUBLIC "-//W3C//DTD SVG 1.1//EN"
  "http://www.w3.org/Graphics/SVG/1.1/DTD/svg11.dtd">
<svg
  width="36px"
  height="46px"
  viewBox="0 0 12 17"
  version="1.1"
  xmlns="http://www.w3.org/2000/svg"
  xmlns:xlink="http://www.w3.org/1999/xlink"
  xml:space="preserve"
  xmlns:serif="http://www.serif.com/"
  style="fill-rule:evenodd;clip-rule:evenodd;stroke-linejoin:round;stroke-miterlimit:2;"
><path
    d="M1.153,9.535c-0.725,-0.992 -1.153,-2.214 -1.153,-3.535c-0,-3.311 2.689,-6 6,-6c3.311,-0 6,2.689 6,6c-0,1.103 -0.298,2.136 -0.818,3.025c0.022,-0.011 0.044,-0.022 0.067,-0.034c-0.048,0.053 -0.095,0.105 -0.142,0.158c-0.311,0.504 -0.695,0.958 -1.136,1.348c-1.527,1.915 -2.842,4.017 -3.971,6.285c-1.41,-2.756 -3.021,-5.222 -4.918,-7.278c0.024,0.011 0.047,0.021 0.071,0.031Z"
    style="fill:#636466;"
  /><circle cx="6" cy="6.072" r="4.715" style="fill:#fff;" /><g><path
      d="M6.205,3.104c-0,0.123 -0.096,0.222 -0.213,0.222c-0.118,-0 -0.213,-0.099 -0.213,-0.222c-0,-0.123 0.095,-0.222 0.213,-0.222c0.117,-0 0.213,0.099 0.213,0.222"
      style="fill:#636466;fill-rule:nonzero;"
    /><path
      d="M4.275,2.434c-0,0.123 -0.096,0.222 -0.214,0.222c-0.117,0 -0.212,-0.099 -0.212,-0.222c-0,-0.122 0.095,-0.222 0.212,-0.222c0.118,0 0.214,0.1 0.214,0.222"
      style="fill:#636466;fill-rule:nonzero;"
    /><path
      d="M3.107,3.864c0,0.123 -0.095,0.222 -0.213,0.222c-0.117,0 -0.213,-0.099 -0.213,-0.222c0,-0.123 0.096,-0.222 0.213,-0.222c0.118,0 0.213,0.099 0.213,0.222"
      style="fill:#636466;fill-rule:nonzero;"
    /><path
      d="M5.23,4.026c0,0.123 -0.095,0.223 -0.213,0.223c-0.117,-0 -0.213,-0.1 -0.213,-0.223c0,-0.122 0.096,-0.221 0.213,-0.221c0.118,-0 0.213,0.099 0.213,0.221"
      style="fill:#636466;fill-rule:nonzero;"
    /><path
      d="M7.186,4.026c-0,0.123 -0.096,0.223 -0.213,0.223c-0.117,-0 -0.213,-0.1 -0.213,-0.223c-0,-0.122 0.096,-0.221 0.213,-0.221c0.117,-0 0.213,0.099 0.213,0.221"
      style="fill:#636466;fill-rule:nonzero;"
    /><path
      d="M5.23,5.51c0,0.122 -0.095,0.222 -0.213,0.222c-0.117,0 -0.213,-0.1 -0.213,-0.222c0,-0.123 0.096,-0.222 0.213,-0.222c0.118,-0 0.213,0.099 0.213,0.222"
      style="fill:#636466;fill-rule:nonzero;"
    /><path
      d="M7.186,5.51c-0,0.122 -0.096,0.222 -0.213,0.222c-0.117,0 -0.213,-0.1 -0.213,-0.222c-0,-0.123 0.096,-0.222 0.213,-0.222c0.117,-0 0.213,0.099 0.213,0.222"
      style="fill:#636466;fill-rule:nonzero;"
    /><path
      d="M8.152,4.738c-0,0.123 -0.096,0.222 -0.214,0.222c-0.117,-0 -0.212,-0.099 -0.212,-0.222c-0,-0.123 0.095,-0.222 0.212,-0.222c0.118,-0 0.214,0.099 0.214,0.222"
      style="fill:#636466;fill-rule:nonzero;"
    /><path
      d="M4.263,4.738c0,0.123 -0.096,0.222 -0.213,0.222c-0.118,-0 -0.213,-0.099 -0.213,-0.222c-0,-0.123 0.095,-0.222 0.213,-0.222c0.117,-0 0.213,0.099 0.213,0.222"
      style="fill:#636466;fill-rule:nonzero;"
    /><path
      d="M3.107,6.474c0,0.123 -0.095,0.222 -0.213,0.222c-0.117,0 -0.213,-0.099 -0.213,-0.222c0,-0.122 0.096,-0.222 0.213,-0.222c0.118,-0 0.213,0.1 0.213,0.222"
      style="fill:#636466;fill-rule:nonzero;"
    /><path
      d="M3.753,8.27c-0,0.122 -0.096,0.222 -0.213,0.222c-0.118,0 -0.213,-0.1 -0.213,-0.222c-0,-0.123 0.095,-0.222 0.213,-0.222c0.117,-0 0.213,0.099 0.213,0.222"
      style="fill:#636466;fill-rule:nonzero;"
    /><path
      d="M4.917,9.709c-0,0.123 -0.095,0.223 -0.213,0.223c-0.118,-0 -0.213,-0.1 -0.213,-0.223c-0,-0.122 0.095,-0.222 0.213,-0.222c0.118,0 0.213,0.1 0.213,0.222"
      style="fill:#636466;fill-rule:nonzero;"
    /><path
      d="M4.917,7.093c-0,0.122 -0.095,0.221 -0.213,0.221c-0.118,0 -0.213,-0.099 -0.213,-0.221c-0,-0.123 0.095,-0.222 0.213,-0.222c0.118,-0 0.213,0.099 0.213,0.222"
      style="fill:#636466;fill-rule:nonzero;"
    /><path
      d="M6.213,6.458c0,0.123 -0.095,0.222 -0.213,0.222c-0.118,-0 -0.213,-0.099 -0.213,-0.222c-0,-0.122 0.095,-0.222 0.213,-0.222c0.118,0 0.213,0.1 0.213,0.222"
      style="fill:#636466;fill-rule:nonzero;"
    /><path
      d="M5.575,3.343l0.205,-0.225l-1.505,-0.691l1.3,0.916Z"
      style="fill:#636466;fill-rule:nonzero;"
    /><path
      d="M4.728,9.652l-0.123,0l-1.16,-1.429l-0.575,-1.592l0,-2.631l0.116,-0.246c0.314,-0.412 0.912,-1.199 0.93,-1.227l0.017,0.012l0.025,0.009c-0.001,0.005 -0.004,0.014 -0.933,1.235l-0.107,0.228l0,2.611l0.57,1.579l1.139,1.402l0.053,-0l0,-2.455l0.098,-0.081l0.064,0l1.021,-0.614l0.023,0.043l-1.031,0.621l-0.06,0l-0.067,0.055l-0,2.48Z"
      style="fill:#636466;fill-rule:nonzero;"
    /><path
      d="M5.795,3.104c0,0.123 0.096,0.222 0.214,0.222c0.117,-0 0.212,-0.099 0.212,-0.222c0,-0.123 -0.095,-0.222 -0.212,-0.222c-0.118,-0 -0.214,0.099 -0.214,0.222"
      style="fill:#636466;fill-rule:nonzero;"
    /><path
      d="M7.726,2.434c-0,0.123 0.095,0.222 0.212,0.222c0.118,0 0.214,-0.099 0.214,-0.222c-0,-0.122 -0.096,-0.222 -0.214,-0.222c-0.117,0 -0.212,0.1 -0.212,0.222"
      style="fill:#636466;fill-rule:nonzero;"
    /><path
      d="M8.893,3.864c-0,0.123 0.095,0.222 0.213,0.222c0.117,0 0.213,-0.099 0.213,-0.222c-0,-0.123 -0.096,-0.222 -0.213,-0.222c-0.118,0 -0.213,0.099 -0.213,0.222"
      style="fill:#636466;fill-rule:nonzero;"
    /><path
      d="M8.893,6.474c-0,0.123 0.095,0.222 0.213,0.222c0.117,0 0.213,-0.099 0.213,-0.222c-0,-0.122 -0.096,-0.222 -0.213,-0.222c-0.118,-0 -0.213,0.1 -0.213,0.222"
      style="fill:#636466;fill-rule:nonzero;"
    /><path
      d="M8.247,8.27c0,0.122 0.096,0.222 0.213,0.222c0.118,0 0.213,-0.1 0.213,-0.222c0,-0.123 -0.095,-0.222 -0.213,-0.222c-0.117,-0 -0.213,0.099 -0.213,0.222"
      style="fill:#636466;fill-rule:nonzero;"
    /><path
      d="M7.083,9.709c0,0.123 0.095,0.223 0.213,0.223c0.118,-0 0.213,-0.1 0.213,-0.223c0,-0.122 -0.095,-0.222 -0.213,-0.222c-0.118,0 -0.213,0.1 -0.213,0.222"
      style="fill:#636466;fill-rule:nonzero;"
    /><path
      d="M7.083,7.093c0,0.122 0.095,0.221 0.213,0.221c0.118,0 0.213,-0.099 0.213,-0.221c0,-0.123 -0.095,-0.222 -0.213,-0.222c-0.118,-0 -0.213,0.099 -0.213,0.222"
      style="fill:#636466;fill-rule:nonzero;"
    /><path
      d="M5.787,6.458c-0,0.123 0.095,0.222 0.213,0.222c0.118,-0 0.213,-0.099 0.213,-0.222c0,-0.122 -0.095,-0.222 -0.213,-0.222c-0.118,0 -0.213,0.1 -0.213,0.222"
      style="fill:#636466;fill-rule:nonzero;"
    /><path
      d="M6.425,3.343l-0.205,-0.225l1.505,-0.691l-1.3,0.916Z"
      style="fill:#636466;fill-rule:nonzero;"
    /><path
      d="M7.395,9.652l-0.122,0l-0,-2.48l-0.068,-0.055l-0.06,0l-0.005,-0.003l-1.026,-0.618l0.023,-0.043l1.021,0.614l0.064,0l0.098,0.081l-0,2.455l0.053,-0l1.139,-1.402l0.57,-1.579l-0,-2.611l-0.107,-0.228c-0.929,-1.221 -0.932,-1.23 -0.933,-1.235l0.022,-0.008l0.02,-0.013c0.018,0.028 0.616,0.815 0.93,1.227l0.003,0.005l0.112,0.241l-0.001,2.635l-0.574,1.592l-0.003,0.003l-1.156,1.422Z"
      style="fill:#636466;fill-rule:nonzero;"
    /><rect
      x="5.027"
      y="4.001"
      width="0.394"
      height="0.05"
      style="fill:#636466;"
    /><rect
      x="6.555"
      y="4.001"
      width="0.417"
      height="0.05"
      style="fill:#636466;"
    /><rect
      x="5.027"
      y="5.485"
      width="0.394"
      height="0.049"
      style="fill:#636466;"
    /><rect
      x="6.555"
      y="5.485"
      width="0.417"
      height="0.049"
      style="fill:#636466;"
    /><rect
      x="6.872"
      y="4.713"
      width="1.067"
      height="0.05"
      style="fill:#636466;"
    /><rect
      x="4.05"
      y="4.713"
      width="1.066"
      height="0.05"
      style="fill:#636466;"
    /><path
      d="M6.83,4.738c0,0.478 -0.371,0.865 -0.83,0.865c-0.458,0 -0.83,-0.387 -0.83,-0.865c-0,-0.478 0.372,-0.865 0.83,-0.865c0.459,-0 0.83,0.387 0.83,0.865"
      style="fill:#51c6d8;fill-rule:nonzero;"
    /></g></svg>
