<?xml version="1.0" encoding="UTF-8" standalone="no" ?>
<!DOCTYPE svg PUBLIC "-//W3C//DTD SVG 1.1//EN"
  "http://www.w3.org/Graphics/SVG/1.1/DTD/svg11.dtd">
<svg
  width="100%"
  height="100%"
  viewBox="0 0 113 158"
  version="1.1"
  xmlns="http://www.w3.org/2000/svg"
  xmlns:xlink="http://www.w3.org/1999/xlink"
  xml:space="preserve"
  xmlns:serif="http://www.serif.com/"
  style="fill-rule:evenodd;clip-rule:evenodd;stroke-linejoin:round;stroke-miterlimit:2;"
><path
    d="M10.831,89.585c-6.81,-9.317 -10.831,-20.799 -10.831,-33.213c0,-31.113 25.259,-56.372 56.372,-56.372c31.112,-0 56.372,25.259 56.372,56.372c-0,10.36 -2.801,20.072 -7.687,28.419c0.207,-0.103 0.418,-0.209 0.629,-0.315c-0.446,0.493 -0.89,0.987 -1.332,1.483c-2.926,4.731 -6.531,8.998 -10.678,12.662c-14.338,17.998 -26.696,37.747 -37.304,59.048c-13.245,-25.894 -28.384,-49.062 -46.203,-68.373c0.221,0.097 0.442,0.193 0.662,0.289Z"
    style="fill:#636466;"
  /><circle cx="56.372" cy="57.048" r="44.299" style="fill:#fff;" /><g><path
      d="M58.298,29.162c-0,1.152 -0.901,2.086 -2.004,2.086c-1.103,-0 -2,-0.934 -2,-2.086c-0,-1.151 0.897,-2.086 2,-2.086c1.103,0 2.004,0.935 2.004,2.086"
      style="fill:#636466;fill-rule:nonzero;"
    /><path
      d="M40.161,22.87c-0,1.158 -0.896,2.088 -2.003,2.088c-1.103,0 -2,-0.93 -2,-2.088c-0,-1.151 0.897,-2.087 2,-2.087c1.107,-0 2.003,0.936 2.003,2.087"
      style="fill:#636466;fill-rule:nonzero;"
    /><path
      d="M29.193,36.304c0,1.151 -0.897,2.089 -1.999,2.089c-1.107,0 -2.003,-0.938 -2.003,-2.089c-0,-1.152 0.896,-2.086 2.003,-2.086c1.102,0 1.999,0.934 1.999,2.086"
      style="fill:#636466;fill-rule:nonzero;"
    /><path
      d="M49.14,37.828c-0,1.15 -0.897,2.089 -2.003,2.089c-1.103,-0 -1.999,-0.939 -1.999,-2.089c0,-1.152 0.896,-2.082 1.999,-2.082c1.106,0 2.003,0.93 2.003,2.082"
      style="fill:#636466;fill-rule:nonzero;"
    /><path
      d="M67.513,37.828c0,1.15 -0.897,2.089 -2.001,2.089c-1.102,-0 -2.003,-0.939 -2.003,-2.089c0,-1.152 0.901,-2.082 2.003,-2.082c1.104,0 2.001,0.93 2.001,2.082"
      style="fill:#636466;fill-rule:nonzero;"
    /><path
      d="M49.14,51.768c-0,1.148 -0.897,2.089 -2.003,2.089c-1.103,0 -1.999,-0.941 -1.999,-2.089c0,-1.156 0.896,-2.086 1.999,-2.086c1.106,0 2.003,0.93 2.003,2.086"
      style="fill:#636466;fill-rule:nonzero;"
    /><path
      d="M67.513,51.768c0,1.148 -0.897,2.089 -2.001,2.089c-1.102,0 -2.003,-0.941 -2.003,-2.089c0,-1.156 0.901,-2.086 2.003,-2.086c1.104,0 2.001,0.93 2.001,2.086"
      style="fill:#636466;fill-rule:nonzero;"
    /><path
      d="M76.588,44.513c-0,1.156 -0.9,2.084 -2.005,2.084c-1.103,-0 -1.999,-0.928 -1.999,-2.084c0,-1.151 0.896,-2.087 1.999,-2.087c1.105,0 2.005,0.936 2.005,2.087"
      style="fill:#636466;fill-rule:nonzero;"
    /><path
      d="M40.052,44.513c0,1.156 -0.898,2.084 -2.005,2.084c-1.107,-0 -2,-0.928 -2,-2.084c-0,-1.151 0.893,-2.087 2,-2.087c1.107,0 2.005,0.936 2.005,2.087"
      style="fill:#636466;fill-rule:nonzero;"
    /><path
      d="M29.193,60.826c0,1.158 -0.897,2.085 -1.999,2.085c-1.107,0 -2.003,-0.927 -2.003,-2.085c-0,-1.147 0.896,-2.087 2.003,-2.087c1.102,-0 1.999,0.94 1.999,2.087"
      style="fill:#636466;fill-rule:nonzero;"
    /><path
      d="M35.26,77.698c0,1.151 -0.899,2.09 -2.003,2.09c-1.104,-0 -2.003,-0.939 -2.003,-2.09c0,-1.151 0.899,-2.085 2.003,-2.085c1.104,-0 2.003,0.934 2.003,2.085"
      style="fill:#636466;fill-rule:nonzero;"
    /><path
      d="M46.196,91.218c-0,1.156 -0.894,2.095 -2.002,2.095c-1.109,-0 -2.001,-0.939 -2.001,-2.095c0,-1.148 0.892,-2.08 2.001,-2.08c1.108,-0 2.002,0.932 2.002,2.08"
      style="fill:#636466;fill-rule:nonzero;"
    /><path
      d="M46.196,66.636c-0,1.149 -0.894,2.084 -2.002,2.084c-1.109,0 -2.001,-0.935 -2.001,-2.084c0,-1.15 0.892,-2.085 2.001,-2.085c1.108,-0 2.002,0.935 2.002,2.085"
      style="fill:#636466;fill-rule:nonzero;"
    /><path
      d="M58.374,60.678c0,1.15 -0.891,2.081 -2.001,2.081c-1.11,0 -2.004,-0.931 -2.004,-2.081c0,-1.151 0.894,-2.088 2.004,-2.088c1.11,-0 2.001,0.937 2.001,2.088"
      style="fill:#636466;fill-rule:nonzero;"
    /><path
      d="M52.377,31.412l1.925,-2.114l-14.141,-6.5l12.216,8.614Z"
      style="fill:#636466;fill-rule:nonzero;"
    /><path
      d="M44.417,90.687l-1.154,-0l-10.896,-13.431l-5.399,-14.958l-0,-24.718l1.088,-2.31c2.946,-3.874 8.563,-11.263 8.735,-11.527l0.158,0.108l0.239,0.088c-0.013,0.052 -0.038,0.131 -8.768,11.599l-1.003,2.15l0,24.524l5.353,14.843l10.698,13.166l0.502,0l0,-23.068l0.925,-0.753l0.6,0l9.589,-5.772l0.217,0.4l-9.686,5.843l-0.568,-0l-0.63,0.515l0,23.301Z"
      style="fill:#636466;fill-rule:nonzero;"
    /><path
      d="M54.447,29.162c0,1.152 0.9,2.086 2.005,2.086c1.102,-0 1.999,-0.934 1.999,-2.086c-0,-1.151 -0.897,-2.086 -1.999,-2.086c-1.105,0 -2.005,0.935 -2.005,2.086"
      style="fill:#636466;fill-rule:nonzero;"
    /><path
      d="M72.584,22.87c-0,1.158 0.896,2.088 1.999,2.088c1.105,0 2.005,-0.93 2.005,-2.088c-0,-1.151 -0.9,-2.087 -2.005,-2.087c-1.103,-0 -1.999,0.936 -1.999,2.087"
      style="fill:#636466;fill-rule:nonzero;"
    /><path
      d="M83.549,36.304c0,1.151 0.898,2.089 2.003,2.089c1.103,0 2.001,-0.938 2.001,-2.089c-0,-1.152 -0.898,-2.086 -2.001,-2.086c-1.105,0 -2.003,0.934 -2.003,2.086"
      style="fill:#636466;fill-rule:nonzero;"
    /><path
      d="M83.549,60.826c0,1.158 0.898,2.085 2.003,2.085c1.103,0 2.001,-0.927 2.001,-2.085c-0,-1.147 -0.898,-2.087 -2.001,-2.087c-1.105,-0 -2.003,0.94 -2.003,2.087"
      style="fill:#636466;fill-rule:nonzero;"
    /><path
      d="M77.483,77.698c0,1.151 0.899,2.09 2.005,2.09c1.103,-0 1.999,-0.939 1.999,-2.09c0,-1.151 -0.896,-2.085 -1.999,-2.085c-1.106,-0 -2.005,0.934 -2.005,2.085"
      style="fill:#636466;fill-rule:nonzero;"
    /><path
      d="M66.547,91.218c0,1.156 0.894,2.095 2.002,2.095c1.109,-0 2.002,-0.939 2.002,-2.095c0,-1.148 -0.893,-2.08 -2.002,-2.08c-1.108,-0 -2.002,0.932 -2.002,2.08"
      style="fill:#636466;fill-rule:nonzero;"
    /><path
      d="M66.547,66.636c0,1.149 0.894,2.084 2.002,2.084c1.109,0 2.002,-0.935 2.002,-2.084c0,-1.15 -0.893,-2.085 -2.002,-2.085c-1.108,-0 -2.002,0.935 -2.002,2.085"
      style="fill:#636466;fill-rule:nonzero;"
    /><path
      d="M54.369,60.678c0,1.15 0.894,2.081 2.004,2.081c1.109,0 2.001,-0.931 2.001,-2.081c0,-1.151 -0.892,-2.088 -2.001,-2.088c-1.11,-0 -2.004,0.937 -2.004,2.088"
      style="fill:#636466;fill-rule:nonzero;"
    /><path
      d="M60.368,31.412l-1.927,-2.114l14.142,-6.5l-12.215,8.614Z"
      style="fill:#636466;fill-rule:nonzero;"
    /><path
      d="M69.48,90.687l-1.152,-0l-0,-23.301l-0.632,-0.515l-0.568,-0l-0.05,-0.036l-9.634,-5.807l0.216,-0.4l9.588,5.772l0.601,0l0.924,0.753l0,23.068l0.503,0l10.696,-13.166l5.355,-14.843l-0,-24.524l-1.007,-2.15c-8.727,-11.468 -8.752,-11.547 -8.764,-11.599l0.206,-0.074l0.189,-0.122c0.174,0.264 5.792,7.653 8.739,11.527l0.024,0.045l1.06,2.265l-0.014,24.756l-5.397,14.96l-0.023,0.03l-10.86,13.361Z"
      style="fill:#636466;fill-rule:nonzero;"
    /><rect
      x="47.232"
      y="37.593"
      width="3.706"
      height="0.471"
      style="fill:#636466;"
    /><rect
      x="61.589"
      y="37.593"
      width="3.922"
      height="0.471"
      style="fill:#636466;"
    /><rect
      x="47.232"
      y="51.531"
      width="3.706"
      height="0.462"
      style="fill:#636466;"
    /><rect
      x="61.589"
      y="51.531"
      width="3.922"
      height="0.462"
      style="fill:#636466;"
    /><rect
      x="64.563"
      y="44.284"
      width="10.021"
      height="0.468"
      style="fill:#636466;"
    /><rect
      x="38.047"
      y="44.284"
      width="10.018"
      height="0.468"
      style="fill:#636466;"
    /><path
      d="M64.171,44.513c0,4.496 -3.49,8.13 -7.798,8.13c-4.308,0 -7.801,-3.634 -7.801,-8.13c-0,-4.49 3.493,-8.129 7.801,-8.129c4.308,0 7.798,3.639 7.798,8.129"
      style="fill:#51c6d8;fill-rule:nonzero;"
    /></g></svg>
